<svg width="80" height="80" viewBox="0 0 80 80" fill="none" xmlns="http://www.w3.org/2000/svg">
<path d="M76.5128 77.6187H70.0302V74.431C70.0302 74.212 69.8524 74.0341 69.6333 74.0341C69.4143 74.0341 69.2365 74.212 69.2365 74.431V77.6187H62.0927V74.431C62.0927 74.212 61.9149 74.0341 61.6958 74.0341C61.4767 74.0341 61.2989 74.212 61.2989 74.431V77.6187H54.1552V74.431C54.1552 74.212 53.9773 74.0341 53.7583 74.0341C53.5392 74.0341 53.3614 74.212 53.3614 74.431V77.6187H46.2176V74.431C46.2176 74.212 46.0398 74.0341 45.8207 74.0341C45.6017 74.0341 45.4239 74.212 45.4239 74.431V77.6187H38.2801V74.431C38.2801 74.212 38.1023 74.0341 37.8832 74.0341C37.6641 74.0341 37.4863 74.212 37.4863 74.431V77.6187H30.3426V74.431C30.3426 74.212 30.1648 74.0341 29.9457 74.0341C29.7266 74.0341 29.5488 74.212 29.5488 74.431V77.6187H22.405V74.431C22.405 74.212 22.2272 74.0341 22.0081 74.0341C21.7891 74.0341 21.6113 74.212 21.6113 74.431V77.6187H14.4675V74.431C14.4675 74.212 14.2897 74.0341 14.0706 74.0341C13.8515 74.0341 13.6737 74.212 13.6737 74.431V77.6187H4.67813V63.1994H8.51514C8.73342 63.1994 8.91201 63.0208 8.91201 62.8025C8.91201 62.5843 8.73342 62.4057 8.51514 62.4057H4.67813V55.2619H8.51514C8.73342 55.2619 8.91201 55.0833 8.91201 54.865C8.91201 54.6467 8.73342 54.4681 8.51514 54.4681H4.67813V47.3244H8.51514C8.73342 47.3244 8.91201 47.1458 8.91201 46.9275C8.91201 46.7092 8.73342 46.5306 8.51514 46.5306H4.67813V39.3868H8.51514C8.73342 39.3868 8.91201 39.209 8.91201 38.9899C8.91201 38.7709 8.73342 38.5931 8.51514 38.5931H4.67813V31.4493H8.51514C8.73342 31.4493 8.91201 31.2715 8.91201 31.0524C8.91201 30.8333 8.73342 30.6555 8.51514 30.6555H4.67813V23.5118H8.51514C8.73342 23.5118 8.91201 23.334 8.91201 23.1149C8.91201 22.8958 8.73342 22.718 8.51514 22.718H4.67813V15.5742H8.51514C8.73342 15.5742 8.91201 15.3964 8.91201 15.1774C8.91201 14.9583 8.73342 14.7805 8.51514 14.7805H4.67813V7.6367H8.51514C8.73342 7.6367 8.91201 7.4589 8.91201 7.23982C8.91201 7.02075 8.73342 6.84295 8.51514 6.84295H4.67813V1.19063C4.67813 0.533402 4.14473 0 3.4875 0C2.83028 0 2.29688 0.533402 2.29688 1.19063V78.8094C2.29688 79.4666 2.83028 80 3.4875 80H76.5128C77.17 80 77.7034 79.4666 77.7034 78.8094C77.7034 78.1521 77.17 77.6187 76.5128 77.6187Z" fill="#FFF8F8"/>
<path d="M35.8952 26.7214L52.7553 34.9169L74.8232 20.6302L74.4359 28.3589L76.0218 28.4383L76.5457 17.9774L65.2815 17.4258L65.2029 19.0117L73.754 19.43L52.6434 33.0976L35.3721 24.7021L24.3135 40.4716L11.8191 33.3183L11.0293 34.6963L24.7827 42.5695L35.8952 26.7214Z" fill="white"/>
<path d="M74.7052 45.1153L77.5889 35.0466L66.7431 31.9541L66.3073 33.4805L74.3441 35.7721L53.2461 45.1852L40.0484 32.9701L21.7984 47.0187L11.9503 45.3407L11.6836 46.906L22.2183 48.6999L39.9523 35.0458L52.9365 47.0608L75.3609 37.0563L73.1796 44.6788L74.7052 45.1153Z" fill="white"/>
</svg>
