<svg width="92" height="91" viewBox="0 0 92 91" fill="none" xmlns="http://www.w3.org/2000/svg">
<g clip-path="url(#clip0_732_363)">
<path d="M83.1991 38.6C79.6751 38.6 76.7641 41.209 76.2781 44.6H58.0931C57.8451 41.593 56.6121 38.797 54.5521 36.576L54.6241 36.648L68.5781 22.694L67.8281 21.944L53.8771 35.895C51.6461 33.801 48.8241 32.545 45.7881 32.294V13.924H45.7671C49.1681 13.447 51.7881 10.533 51.7881 7C51.7881 3.134 48.6541 0 44.7881 0C40.9231 0 37.7881 3.134 37.7881 7C37.7881 10.533 40.4091 13.447 43.8101 13.924H43.7881V32.281C40.5051 32.488 37.4481 33.847 35.1081 36.188C32.8311 38.465 31.4771 41.419 31.2151 44.6H12.9991V45.6V46.6H31.2021C31.3991 49.739 32.6611 52.662 34.8151 54.956L21.0451 68.727C20.0511 67.878 18.8151 67.395 17.4931 67.395C16.0241 67.395 14.6431 67.967 13.6041 69.006C11.4601 71.151 11.4601 74.639 13.6041 76.783C14.6431 77.822 16.0241 78.392 17.4931 78.392C18.9631 78.392 20.3441 77.821 21.3831 76.782C22.4221 75.743 22.9941 74.362 22.9941 72.892C22.9941 71.636 22.5541 70.457 21.7811 69.489L35.5721 55.7C37.8461 57.777 40.7141 58.993 43.7881 59.185V77.275H43.8101C40.4091 77.753 37.7881 80.667 37.7881 84.2C37.7881 88.066 40.9231 91.2 44.7881 91.2C48.6541 91.2 51.7881 88.066 51.7881 84.2C51.7881 80.667 49.1681 77.753 45.7671 77.275H45.7881V59.174C48.7421 58.93 51.4901 57.733 53.6921 55.74L67.4751 69.523L68.2251 68.773L54.4531 55C56.6341 52.697 57.9071 49.758 58.1041 46.6H76.2781C76.7641 49.992 79.6741 52.6 83.1991 52.6C87.0651 52.6 90.1991 49.467 90.1991 45.6C90.1991 41.734 87.0651 38.6 83.1991 38.6ZM56.9441 47.987C56.8561 48.476 56.7331 48.955 56.5891 49.425C56.7351 48.952 56.8561 48.473 56.9441 47.987ZM20.6761 76.076C19.8261 76.926 18.6961 77.394 17.4931 77.394C16.2901 77.394 15.1611 76.925 14.3111 76.077C12.5571 74.323 12.5571 71.467 14.3111 69.713C15.1611 68.863 16.2901 68.395 17.4931 68.395C18.6961 68.395 19.8261 68.864 20.6761 69.713C21.5271 70.563 21.9941 71.693 21.9941 72.895C21.9941 74.098 21.5261 75.227 20.6761 76.076ZM44.2551 54.221C46.3941 54.319 48.4971 53.613 50.1271 52.239C48.4981 53.612 46.4081 54.322 44.2551 54.221ZM49.9581 51.037C48.5431 52.451 46.6601 53.23 44.6541 53.23C42.6481 53.23 40.7641 52.451 39.3511 51.037C37.9371 49.623 37.1581 47.74 37.1581 45.734C37.1581 43.729 37.9361 41.845 39.3501 40.431C40.7641 39.017 42.6481 38.239 44.6541 38.239C46.6601 38.239 48.5441 39.018 49.9581 40.431C52.8821 43.354 52.8821 48.112 49.9581 51.037ZM57.0781 44.6C56.9031 42.675 56.3041 40.782 55.2421 39.09C56.2841 40.745 56.9011 42.625 57.0781 44.6ZM56.0131 50.949C55.7921 51.428 55.5431 51.892 55.2631 52.342C55.5441 51.891 55.7941 51.426 56.0131 50.949ZM56.5731 49.491C56.4221 49.97 56.2391 50.441 56.0311 50.898C56.2401 50.438 56.4231 49.969 56.5731 49.491Z" fill="#FFF8F8"/>
<path d="M6 52.5996C9.86599 52.5996 13 49.4656 13 45.5996C13 41.7336 9.86599 38.5996 6 38.5996C2.13401 38.5996 -1 41.7336 -1 45.5996C-1 49.4656 2.13401 52.5996 6 52.5996Z" fill="#FFF8F8"/>
<path d="M72.083 23.8047C73.552 23.8047 74.933 23.2327 75.972 22.1947C78.118 20.0497 78.118 16.5607 75.972 14.4167C74.933 13.3777 73.552 12.8057 72.082 12.8057C70.613 12.8057 69.231 13.3777 68.192 14.4167C67.154 15.4557 66.582 16.8367 66.582 18.3057C66.582 19.7737 67.154 21.1547 68.192 22.1947C69.231 23.2327 70.613 23.8047 72.083 23.8047ZM68.899 15.1227C69.75 14.2727 70.878 13.8047 72.082 13.8047C73.286 13.8047 74.415 14.2727 75.265 15.1227C77.019 16.8767 77.019 19.7317 75.265 21.4867C74.415 22.3367 73.286 22.8037 72.083 22.8037C70.88 22.8037 69.75 22.3357 68.899 21.4867C68.049 20.6357 67.582 19.5057 67.582 18.3047C67.582 17.1037 68.05 15.9737 68.899 15.1227Z" fill="#FFF8F8"/>
<path d="M72.083 67.3945C70.613 67.3945 69.231 67.9665 68.192 69.0055C67.154 70.0435 66.582 71.4255 66.582 72.8945C66.582 74.3635 67.154 75.7455 68.192 76.7845C69.231 77.8235 70.613 78.3945 72.083 78.3945C73.554 78.3945 74.935 77.8225 75.972 76.7845C78.117 74.6405 78.118 71.1505 75.972 69.0065C74.935 67.9665 73.554 67.3945 72.083 67.3945ZM75.265 76.0765C74.415 76.9275 73.286 77.3935 72.083 77.3935C70.88 77.3935 69.75 76.9245 68.899 76.0765C68.049 75.2255 67.582 74.0975 67.582 72.8935C67.582 71.6895 68.05 70.5615 68.899 69.7105C69.75 68.8605 70.878 68.3935 72.083 68.3935C73.285 68.3935 74.415 68.8625 75.265 69.7105C77.019 71.4665 77.019 74.3215 75.265 76.0765Z" fill="#FFF8F8"/>
<path d="M17.4931 23.8047C18.6661 23.8047 19.7741 23.4267 20.7051 22.7517L34.6011 36.6477L35.3511 35.8977L21.5021 22.0487C22.4581 21.0267 22.9941 19.7097 22.9941 18.3057C22.9941 16.8367 22.4221 15.4547 21.3831 14.4157C20.3451 13.3767 18.9641 12.8057 17.4941 12.8057C16.0241 12.8057 14.6421 13.3777 13.6041 14.4157C12.5671 15.4527 11.9961 16.8337 11.9961 18.3047C11.9961 19.7757 12.5671 21.1567 13.6041 22.1937C14.6421 23.2327 16.0231 23.8047 17.4931 23.8047ZM14.3111 15.1227C15.1611 14.2727 16.2901 13.8057 17.4941 13.8057C18.6961 13.8057 19.8261 14.2737 20.6761 15.1227C21.5271 15.9727 21.9941 17.1027 21.9941 18.3057C21.9941 19.5067 21.5251 20.6367 20.6761 21.4877C19.8261 22.3377 18.6971 22.8047 17.4931 22.8047C16.2911 22.8047 15.1611 22.3367 14.3111 21.4877C13.4621 20.6397 12.9961 19.5087 12.9961 18.3057C12.9961 17.1027 13.4631 15.9717 14.3111 15.1227Z" fill="#FFF8F8"/>
</g>
<defs>
<clipPath id="clip0_732_363">
<rect width="92" height="91" fill="white"/>
</clipPath>
</defs>
</svg>
