<svg width="101" height="116" viewBox="0 0 101 116" fill="none" xmlns="http://www.w3.org/2000/svg">
<g clip-path="url(#clip0_732_374)">
<path d="M50.5672 56.8356L63.1114 49.708H38.6641L50.5672 56.8356Z" fill="#FFF8F8"/>
<path d="M38.6641 50.5117V68.6102C38.6641 69.0139 38.9482 69.3406 39.2965 69.3406H62.3135C62.6626 69.3406 62.945 69.0119 62.945 68.6102V50.9295L50.7933 58.9598L38.6641 50.5117Z" fill="#FFF8F8"/>
<path d="M67.8119 21.3477H33.9625C32.1372 21.3477 30.6523 23.0649 30.6523 25.1759V93.8747C30.6523 95.9848 32.1372 97.703 33.9625 97.703H67.8119C69.6372 97.703 71.1221 95.9868 71.1221 93.8747V25.1749C71.1229 23.0649 69.6372 21.3477 67.8119 21.3477ZM53.0673 94.9969H48.7071V91.6716L50.905 89.0415L53.0673 91.6736V94.9969ZM33.9625 87.6529V25.1749H67.8119L67.8136 87.6529H33.9625Z" fill="#FFF8F8"/>
<path d="M49.3535 91.9726V94.25H52.4211V91.9726L50.9025 90.1211L49.3535 91.9726Z" fill="#FFF8F8"/>
<path d="M24.4052 31.5387V19.7643C24.4052 18.6432 23.6177 17.7324 22.6492 17.7324H2.35063C1.38209 17.7314 0.59375 18.6422 0.59375 19.7643V36.2146C0.59375 37.3357 1.38209 38.2465 2.35063 38.2465H18.9734L27.1349 44.4202C27.2727 44.5244 27.4312 44.5765 27.588 44.5765C27.7725 44.5765 27.9579 44.5044 28.1095 44.3631C28.3885 44.1006 28.4898 43.6598 28.359 43.2721L24.4052 31.5387ZM20.0884 36.8017C20.0866 36.7977 20.0849 36.7947 20.0832 36.7907C19.9324 36.5052 19.6656 36.3308 19.3762 36.3308H2.35063C2.29519 36.3308 2.2484 36.2777 2.2484 36.2126V19.7643C2.2484 19.6992 2.29519 19.6461 2.35063 19.6461H22.6492C22.7046 19.6461 22.7505 19.6982 22.7505 19.7643V31.7201C22.7505 31.8393 22.7696 31.9565 22.8068 32.0677L25.8779 41.1821L20.0884 36.8017Z" fill="#FFF8F8"/>
<path d="M98.6472 47.6143H78.3487C77.3801 47.6143 76.5935 48.527 76.5935 49.6471V61.4236L72.6405 73.1539C72.5097 73.5416 72.6111 73.9825 72.89 74.245C73.0417 74.3882 73.227 74.4584 73.4116 74.4584C73.571 74.4584 73.7269 74.4073 73.8646 74.3021L82.0262 68.1303H98.6489C99.6183 68.1303 100.405 67.2166 100.405 66.0975V49.6471C100.404 48.528 99.6166 47.6143 98.6472 47.6143ZM98.7494 66.0975C98.7494 66.1616 98.7026 66.2167 98.6472 66.2167H81.6216C81.3322 66.2167 81.0646 66.39 80.9147 66.6766C80.913 66.6786 80.9112 66.6836 80.9095 66.6876L75.1191 71.0659L78.1901 61.9506C78.2274 61.8414 78.2473 61.7211 78.2473 61.6029V49.6471C78.2473 49.582 78.2932 49.5279 78.3478 49.5279H98.6463C98.7018 49.5279 98.7486 49.581 98.7486 49.6471V66.0975H98.7494Z" fill="#FFF8F8"/>
</g>
<defs>
<clipPath id="clip0_732_374">
<rect width="99.812" height="115.435" fill="white" transform="translate(0.59375)"/>
</clipPath>
</defs>
</svg>
