<svg width="58" height="41" viewBox="0 0 58 41" fill="none" xmlns="http://www.w3.org/2000/svg">
<path d="M18.6329 40.8903C15.1832 40.8903 12.1229 40.0927 9.45216 38.4977C6.81849 36.8656 4.74122 34.5286 3.22037 31.4869C1.7366 28.4081 0.994724 24.7544 0.994724 20.5256C0.994724 16.2969 1.7366 12.6617 3.22037 9.62C4.74122 6.54119 6.81849 4.20427 9.45216 2.60923C12.1229 0.97709 15.1832 0.161022 18.6329 0.161022C22.0827 0.161022 25.1244 0.97709 27.7581 2.60923C30.4288 4.20427 32.5061 6.54119 33.9899 9.62C35.5107 12.6617 36.2711 16.2969 36.2711 20.5256C36.2711 24.7544 35.5107 28.4081 33.9899 31.4869C32.5061 34.5286 30.4288 36.8656 27.7581 38.4977C25.1244 40.0927 22.0827 40.8903 18.6329 40.8903ZM18.6329 30.3741C21.6005 30.3741 23.0842 27.0913 23.0842 20.5256C23.0842 13.96 21.6005 10.6772 18.6329 10.6772C15.6654 10.6772 14.1816 13.96 14.1816 20.5256C14.1816 27.0913 15.6654 30.3741 18.6329 30.3741ZM57.4491 1.05128V40H44.3178V10.9554H37.6409V1.05128H57.4491Z" fill="#FF0000"/>
</svg>
