<svg width="70" height="41" viewBox="0 0 70 41" fill="none" xmlns="http://www.w3.org/2000/svg">
<path d="M17.8351 40.8903C14.3853 40.8903 11.3251 40.0927 8.65431 38.4977C6.02063 36.8656 3.94337 34.5286 2.42251 31.4869C0.938753 28.4081 0.196872 24.7544 0.196872 20.5256C0.196872 16.2969 0.938753 12.6617 2.42251 9.62C3.94337 6.54119 6.02063 4.20427 8.65431 2.60923C11.3251 0.97709 14.3853 0.161022 17.8351 0.161022C21.2848 0.161022 24.3265 0.97709 26.9602 2.60923C29.631 4.20427 31.7082 6.54119 33.192 9.62C34.7129 12.6617 35.4733 16.2969 35.4733 20.5256C35.4733 24.7544 34.7129 28.4081 33.192 31.4869C31.7082 34.5286 29.631 36.8656 26.9602 38.4977C24.3265 40.0927 21.2848 40.8903 17.8351 40.8903ZM17.8351 30.3741C20.8026 30.3741 22.2864 27.0913 22.2864 20.5256C22.2864 13.96 20.8026 10.6772 17.8351 10.6772C14.8676 10.6772 13.3838 13.96 13.3838 20.5256C13.3838 27.0913 14.8676 30.3741 17.8351 30.3741ZM69.3374 29.8177V40H38.1228V31.9321L52.1999 18.912C53.424 17.7621 54.2401 16.7791 54.6481 15.9631C55.0562 15.147 55.2602 14.3495 55.2602 13.5705C55.2602 12.6061 54.9263 11.8642 54.2587 11.3449C53.6281 10.7885 52.7007 10.5103 51.4766 10.5103C50.2896 10.5103 49.1768 10.8256 48.1381 11.4562C47.0995 12.0867 46.302 12.977 45.7456 14.1269L35.8415 9.17487C37.3252 6.39282 39.4952 4.20427 42.3515 2.60923C45.2077 0.97709 48.6575 0.161022 52.7007 0.161022C55.7795 0.161022 58.5059 0.661791 60.8799 1.66333C63.254 2.66487 65.1087 4.09299 66.444 5.94769C67.7794 7.80239 68.4471 9.9353 68.4471 12.3464C68.4471 14.4979 67.9834 16.5195 67.0561 18.4113C66.1658 20.266 64.4039 22.3803 61.7702 24.7544L56.2061 29.8177H69.3374Z" fill="#FF0000"/>
</svg>
