<svg width="70" height="41" viewBox="0 0 70 41" fill="none" xmlns="http://www.w3.org/2000/svg">
<path d="M17.6721 40.8903C14.2223 40.8903 11.1621 40.0927 8.4913 38.4977C5.85762 36.8656 3.78036 34.5286 2.2595 31.4869C0.775743 28.4081 0.0338627 24.7544 0.0338627 20.5256C0.0338627 16.2969 0.775743 12.6617 2.2595 9.62C3.78036 6.54119 5.85762 4.20427 8.4913 2.60923C11.1621 0.97709 14.2223 0.161022 17.6721 0.161022C21.1218 0.161022 24.1635 0.97709 26.7972 2.60923C29.468 4.20427 31.5452 6.54119 33.029 9.62C34.5499 12.6617 35.3103 16.2969 35.3103 20.5256C35.3103 24.7544 34.5499 28.4081 33.029 31.4869C31.5452 34.5286 29.468 36.8656 26.7972 38.4977C24.1635 40.0927 21.1218 40.8903 17.6721 40.8903ZM17.6721 30.3741C20.6396 30.3741 22.1234 27.0913 22.1234 20.5256C22.1234 13.96 20.6396 10.6772 17.6721 10.6772C14.7045 10.6772 13.2208 13.96 13.2208 20.5256C13.2208 27.0913 14.7045 30.3741 17.6721 30.3741ZM59.8823 16.4638C62.8869 17.2057 65.1868 18.5597 66.7818 20.5256C68.4139 22.4545 69.23 24.7915 69.23 27.5364C69.23 29.8733 68.5809 32.0619 67.2826 34.1021C66.0214 36.1051 64.0554 37.7373 61.3846 38.9985C58.7138 40.2597 55.3939 40.8903 51.4249 40.8903C48.6799 40.8903 45.935 40.5935 43.19 40C40.4821 39.4065 38.1081 38.5348 36.0679 37.3849L40.5192 27.7033C42.1143 28.6307 43.8206 29.3355 45.6382 29.8177C47.4929 30.2999 49.2734 30.541 50.9797 30.541C52.5006 30.541 53.7247 30.2814 54.6521 29.762C55.5794 29.2427 56.0431 28.5009 56.0431 27.5364C56.0431 25.7559 54.5037 24.8656 51.4249 24.8656H46.2503V16.7977L51.9813 10.9554H38.071V1.05128H67.1156V9.11923L59.8823 16.4638Z" fill="#FF0000"/>
</svg>
